name Walk10.mot
datacolumns 19
datarows 15
range 3.13000000 3.14400000
endheader

                time	   L_ground_force_vx	   L_ground_force_vy	   L_ground_force_vz	   L_ground_force_px	   L_ground_force_py	   L_ground_force_pz	   R_ground_force_vx	   R_ground_force_vy	   R_ground_force_vz	   R_ground_force_px	   R_ground_force_py	   R_ground_force_pz	   L_ground_torque_x	   L_ground_torque_y	   L_ground_torque_z	   R_ground_torque_x	   R_ground_torque_y	   R_ground_torque_z	
          3.13000000	         19.91436494	        736.92951794	         42.41997257	         -0.15133938	          0.00000000	         -0.05815007	         -0.01047524	          0.23599440	          0.00077714	          0.00036301	          0.00000000	          0.00008819	          0.00000000	          0.12480215	          0.00000000	          0.00000000	          0.00182912	          0.00000000	
          3.13100000	         20.50241984	        738.77505492	         42.60150216	         -0.15095844	          0.00000000	         -0.05817029	         -0.01190246	          0.24887474	          0.00092887	          0.00037729	          0.00000000	          0.00009157	          0.00000000	          0.11043548	          0.00000000	          0.00000000	          0.00207609	          0.00000000	
          3.13200000	         21.10141155	        740.63687428	         42.78245516	         -0.15058365	          0.00000000	         -0.05818939	         -0.01341314	          0.26192414	          0.00109087	          0.00039135	          0.00000000	          0.00009489	          0.00000000	          0.09639024	          0.00000000	          0.00000000	          0.00233743	          0.00000000	
          3.13300000	         21.71135514	        742.51474436	         42.96267247	         -0.15021506	          0.00000000	         -0.05820734	         -0.01500881	          0.27510445	          0.00126341	          0.00040509	          0.00000000	          0.00009812	          0.00000000	          0.08265613	          0.00000000	          0.00000000	          0.00261341	          0.00000000	
          3.13400000	         22.33225751	        744.40840308	         43.14197895	         -0.14985270	          0.00000000	         -0.05822409	         -0.01669077	          0.28837337	          0.00144677	          0.00041844	          0.00000000	          0.00010125	          0.00000000	          0.06921953	          0.00000000	          0.00000000	          0.00290424	          0.00000000	
          3.13500000	         22.96411697	        746.31755841	         43.32018393	         -0.14949659	          0.00000000	         -0.05823964	         -0.01846010	          0.30168435	          0.00164119	          0.00043131	          0.00000000	          0.00010425	          0.00000000	          0.05606390	          0.00000000	          0.00000000	          0.00321010	          0.00000000	
          3.13600000	         23.60692357	        748.24189027	         43.49708191	         -0.14914674	          0.00000000	         -0.05825397	         -0.02031760	          0.31498633	          0.00184690	          0.00044358	          0.00000000	          0.00010710	          0.00000000	          0.04317036	          0.00000000	          0.00000000	          0.00353112	          0.00000000	
          3.13700000	         24.26065998	        750.18105341	         43.67245336	         -0.14880317	          0.00000000	         -0.05826705	         -0.02226380	          0.32822353	          0.00206409	          0.00045517	          0.00000000	          0.00010977	          0.00000000	          0.03051840	          0.00000000	          0.00000000	          0.00386740	          0.00000000	
          3.13800000	         24.92530282	        752.13468001	         43.84606579	         -0.14846589	          0.00000000	         -0.05827889	         -0.02429891	          0.34133527	          0.00229295	          0.00046595	          0.00000000	          0.00011223	          0.00000000	          0.01808663	          0.00000000	          0.00000000	          0.00421894	          0.00000000	
          3.13900000	         25.60082409	        754.10238118	         44.01767526	         -0.14813489	          0.00000000	         -0.05828947	         -0.02642277	          0.35425573	          0.00253360	          0.00047581	          0.00000000	          0.00011446	          0.00000000	          0.00585329	          0.00000000	          0.00000000	          0.00458574	          0.00000000	
          3.14000000	         26.28719244	        756.08374722	         44.18702870	         -0.14781018	          0.00000000	         -0.05829881	         -0.02863488	          0.36691378	          0.00278616	          0.00048462	          0.00000000	          0.00011643	          0.00000000	         -0.00620338	          0.00000000	          0.00000000	          0.00496767	          0.00000000	
          3.14100000	         26.98437413	        758.07834701	         44.35386687	         -0.14749172	          0.00000000	         -0.05830689	         -0.03093428	          0.37923276	          0.00305067	          0.00049225	          0.00000000	          0.00011810	          0.00000000	         -0.01810516	          0.00000000	          0.00000000	          0.00536459	          0.00000000	
          3.14200000	         27.69233381	        760.08572732	         44.51792810	         -0.14717949	          0.00000000	         -0.05831374	         -0.03331960	          0.39113028	          0.00332716	          0.00049856	          0.00000000	          0.00011943	          0.00000000	         -0.02987396	          0.00000000	          0.00000000	          0.00577623	          0.00000000	
          3.14300000	         28.41103521	        762.10541227	         44.67895259	         -0.14687346	          0.00000000	         -0.05831937	         -0.03578896	          0.40251805	          0.00361561	          0.00050339	          0.00000000	          0.00012040	          0.00000000	         -0.04153214	          0.00000000	          0.00000000	          0.00620227	          0.00000000	
          3.14400000	         29.14044194	        764.13690302	         44.83668692	         -0.14657358	          0.00000000	         -0.05832378	         -0.03833999	          0.41330166	          0.00391593	          0.00050659	          0.00000000	          0.00012096	          0.00000000	         -0.05310271	          0.00000000	          0.00000000	          0.00664228	          0.00000000	
